<svg width="152" height="54" viewBox="0 0 152 54" fill="none" xmlns="http://www.w3.org/2000/svg">
<g clip-path="url(#clip0_1113_2)">
<path d="M10.743 51.6699C-3.56701 43.5299 -3.52201 9.84993 10.521 1.94193C24.565 -5.96607 53.697 11.8519 53.697 26.9959C53.697 42.1389 25.053 59.8109 10.743 51.6699V51.6699Z" fill="#FA994D"/>
<mask id="mask0_1113_2" style="mask-type:luminance" maskUnits="userSpaceOnUse" x="-1" y="-1" width="55" height="55">
<path d="M10.743 51.6699C-3.56701 43.5299 -3.52201 9.84993 10.521 1.94193C24.565 -5.96607 53.697 11.8519 53.697 26.9959C53.697 42.1389 25.053 59.8109 10.743 51.6699V51.6699Z" fill="url(#paint0_linear_1113_2)"/>
</mask>
<g mask="url(#mask0_1113_2)">
<path d="M10.743 52.566C-3.56701 44.425 -3.52201 10.746 10.521 2.83804C24.565 -5.07096 53.697 12.748 53.697 27.891C53.697 43.035 25.053 60.706 10.743 52.566Z" fill="url(#paint1_linear_1113_2)"/>
</g>
<path d="M0.00196373 26.1729C0.101964 36.4829 3.66896 46.7499 10.743 50.7749C24.911 58.8349 53.133 41.5899 53.689 26.5499C53.694 26.6989 53.697 26.8469 53.697 26.9959C53.697 42.1389 25.053 59.8108 10.743 51.6698C3.46296 47.5298 -0.101036 36.7779 0.00196373 26.1729Z" fill="#DB466C"/>
<path fill-rule="evenodd" clip-rule="evenodd" d="M10.092 20.98C13.37 20.98 15.519 23.613 15.519 26.772C15.519 26.959 15.508 27.134 15.497 27.31C15.464 27.628 15.267 27.77 14.971 27.77H6.80001C7.16001 29.568 8.49701 30.49 10.168 30.49C11.209 30.49 12.075 30.052 12.547 29.438C12.722 29.251 12.887 29.142 13.15 29.142L14.553 29.131C14.915 29.131 15.113 29.35 14.97 29.657C14.17 31.445 12.371 32.52 10.135 32.52C6.63801 32.52 4.34601 30.04 4.34601 26.75C4.34601 23.504 6.65901 20.98 10.091 20.98H10.092ZM6.79201 25.818H13.137C12.826 23.95 11.493 23.142 10.081 23.142C8.31301 23.142 7.11501 24.177 6.79201 25.818ZM27.872 21.266C28.189 21.266 28.365 21.441 28.365 21.76V31.741C28.365 32.059 28.189 32.235 27.871 32.235H26.49C26.172 32.235 25.997 32.059 25.997 31.741V30.661C25.167 31.812 23.877 32.52 22.149 32.52C19.167 32.52 16.7 30.008 16.7 26.75C16.7 23.493 19.167 20.98 22.149 20.98C23.877 20.98 25.167 21.689 25.997 22.84V21.76C25.997 21.441 26.172 21.266 26.49 21.266H27.872ZM22.532 30.26C24.506 30.26 25.997 28.79 25.997 26.75C25.997 24.71 24.506 23.24 22.532 23.24C20.559 23.24 19.068 24.71 19.068 26.75C19.068 28.79 20.558 30.26 22.532 30.26ZM32.922 24.348C32.922 26.553 39.007 24.962 39.007 29.152C39.007 31.313 37.121 32.52 34.698 32.52C32.451 32.52 30.664 31.445 30.423 29.36C30.39 29.02 30.587 28.845 30.905 28.845H32.265C32.56 28.845 32.681 29.01 32.791 29.285C32.977 30.074 33.744 30.392 34.698 30.392C35.849 30.392 36.638 29.986 36.638 29.152C36.638 26.97 30.554 28.527 30.554 24.348C30.554 22.209 32.44 20.981 34.698 20.981C36.748 20.981 38.513 22.056 38.755 24.14C38.788 24.48 38.59 24.655 38.272 24.655H36.912C36.617 24.655 36.496 24.491 36.387 24.205C36.211 23.427 35.477 23.109 34.698 23.109C33.712 23.109 32.922 23.515 32.922 24.349V24.348ZM47.281 21.672C47.369 21.398 47.566 21.266 47.841 21.266H49.342C49.692 21.266 49.868 21.474 49.748 21.826L44.803 36.227C44.716 36.502 44.507 36.622 44.233 36.622H42.731C42.381 36.622 42.205 36.414 42.326 36.062L43.686 32.103L39.64 21.836C39.508 21.496 39.662 21.266 40.023 21.266H41.514C41.788 21.266 41.974 21.386 42.074 21.65L44.869 28.823L47.281 21.672Z" fill="white"/>
<path fill-rule="evenodd" clip-rule="evenodd" d="M67.426 21.2659C67.744 21.2659 67.919 21.4409 67.919 21.7589V31.7409C67.919 35.2509 65.157 36.9069 62.35 36.9069C59.752 36.9069 57.296 35.4919 56.978 33.1339C56.956 32.7939 57.154 32.6179 57.472 32.6179H58.864C59.16 32.6179 59.302 32.7719 59.39 33.0569C59.653 33.9229 60.684 34.7569 62.35 34.7569C64.411 34.7569 65.595 33.6379 65.595 31.7409V30.3959C64.767 31.5659 63.462 32.2999 61.703 32.2999C58.721 32.2999 56.254 29.7879 56.254 26.6399C56.254 23.4919 58.721 20.9799 61.704 20.9799C63.462 20.9799 64.767 21.7139 65.595 22.8849V21.7599C65.595 21.4409 65.771 21.2659 66.089 21.2659H67.426ZM62.109 30.0839C64.104 30.0839 65.595 28.6139 65.595 26.6399C65.595 24.6659 64.105 23.1959 62.109 23.1959C60.114 23.1959 58.623 24.6659 58.623 26.6399C58.623 28.6149 60.113 30.0839 62.109 30.0839ZM75.579 20.9809C78.858 20.9809 81.006 23.6129 81.006 26.7719C81.006 26.9589 80.996 27.1339 80.985 27.3099C80.952 27.6279 80.755 27.7699 80.458 27.7699H72.288C72.648 29.5679 73.985 30.4899 75.656 30.4899C76.698 30.4899 77.564 30.0519 78.036 29.4379C78.211 29.2509 78.376 29.1419 78.638 29.1419L80.042 29.1309C80.404 29.1309 80.601 29.3499 80.458 29.6569C79.658 31.4449 77.86 32.5199 75.624 32.5199C72.126 32.5199 69.835 30.0399 69.835 26.7499C69.835 23.5039 72.148 20.9799 75.58 20.9799L75.579 20.9809ZM72.279 25.8179H78.624C78.314 23.9499 76.98 23.1419 75.569 23.1419C73.801 23.1419 72.601 24.1769 72.279 25.8179ZM88.272 20.9809C90.312 20.9809 91.89 22.5379 91.89 25.1709V31.7409C91.89 32.0589 91.714 32.2349 91.397 32.2349H90.015C89.697 32.2349 89.522 32.0589 89.522 31.7409V25.3129C89.522 23.8979 88.667 23.1959 87.516 23.1959C86.276 23.1959 85.159 23.9309 85.159 25.9389V31.7409C85.159 32.0589 84.983 32.2349 84.665 32.2349H83.284C82.966 32.2349 82.79 32.0589 82.79 31.7409V21.7599C82.79 21.4409 82.966 21.2659 83.284 21.2659H84.665C84.983 21.2659 85.159 21.4409 85.159 21.7599V22.5079C85.861 21.4399 86.932 20.9809 88.272 20.9809ZM99.276 20.9809C102.554 20.9809 104.703 23.6129 104.703 26.7719C104.703 26.9589 104.692 27.1339 104.681 27.3099C104.648 27.6279 104.451 27.7699 104.155 27.7699H95.985C96.345 29.5679 97.682 30.4899 99.353 30.4899C100.394 30.4899 101.26 30.0519 101.732 29.4379C101.907 29.2509 102.072 29.1419 102.335 29.1419L103.738 29.1309C104.1 29.1309 104.298 29.3499 104.155 29.6569C103.355 31.4449 101.556 32.5199 99.32 32.5199C95.823 32.5199 93.531 30.0399 93.531 26.7499C93.531 23.5039 95.845 20.9799 99.276 20.9799V20.9809ZM95.976 25.8179H102.321C102.011 23.9499 100.677 23.1419 99.265 23.1419C97.497 23.1419 96.299 24.1769 95.976 25.8179ZM111.508 21.1009C111.837 21.0579 112.012 21.2549 112.012 21.5729V23.1309C112.012 23.4379 111.88 23.6129 111.65 23.6129C110.214 23.6459 108.855 24.4359 108.855 26.5969V31.7409C108.855 32.0589 108.679 32.2349 108.361 32.2349H106.98C106.662 32.2349 106.487 32.0589 106.487 31.7409V21.7599C106.487 21.4409 106.662 21.2659 106.98 21.2659H108.361C108.679 21.2659 108.855 21.4409 108.855 21.7599V22.9099C109.435 21.7509 110.393 21.2209 111.508 21.1009ZM124.113 21.7599V31.7409C124.113 32.0589 123.937 32.2349 123.619 32.2349H122.238C121.92 32.2349 121.745 32.0589 121.745 31.7409V30.6609C120.915 31.8119 119.625 32.5199 117.897 32.5199C114.915 32.5199 112.448 30.0079 112.448 26.7499C112.448 23.4929 114.915 20.9799 117.897 20.9799C119.625 20.9799 120.915 21.6889 121.745 22.8399V21.7599C121.745 21.4409 121.92 21.2659 122.238 21.2659H123.619C123.937 21.2659 124.113 21.4409 124.113 21.7599ZM118.28 30.2599C120.254 30.2599 121.745 28.7899 121.745 26.7499C121.745 24.7099 120.254 23.2399 118.28 23.2399C116.307 23.2399 114.816 24.7099 114.816 26.7499C114.816 28.7899 116.306 30.2599 118.28 30.2599ZM131.565 21.2659C131.882 21.2659 132.058 21.4409 132.058 21.7599V23.0539C132.058 23.3719 131.882 23.5469 131.565 23.5469H130.041V31.7409C130.041 32.0589 129.865 32.2349 129.547 32.2349H128.166C127.848 32.2349 127.673 32.0589 127.673 31.7409V23.5469H126.138C125.82 23.5469 125.644 23.3719 125.644 23.0539V21.7599C125.644 21.4409 125.82 21.2659 126.138 21.2659H127.673V18.2499C127.673 17.9309 127.848 17.7559 128.166 17.7559H129.547C129.865 17.7559 130.041 17.9309 130.041 18.2499V21.2659H131.565ZM138.446 32.5199C135.234 32.5199 132.658 30.0079 132.658 26.7499C132.658 23.4929 135.234 20.9799 138.446 20.9799C141.659 20.9799 144.235 23.4929 144.235 26.7499C144.235 30.0079 141.659 32.5199 138.446 32.5199ZM138.446 30.2159C140.376 30.2159 141.866 28.7459 141.866 26.7499C141.866 24.7539 140.376 23.2839 138.446 23.2839C136.516 23.2839 135.026 24.7539 135.026 26.7499C135.026 28.7469 136.516 30.2159 138.446 30.2159ZM151.161 21.1009C151.489 21.0579 151.665 21.2549 151.665 21.5729V23.1309C151.665 23.4379 151.533 23.6129 151.303 23.6129C149.867 23.6459 148.507 24.4359 148.507 26.5969V31.7409C148.507 32.0589 148.332 32.2349 148.014 32.2349H146.633C146.315 32.2349 146.139 32.0589 146.139 31.7409V21.7599C146.139 21.4409 146.315 21.2659 146.633 21.2659H148.014C148.332 21.2659 148.507 21.4409 148.507 21.7599V22.9099C149.087 21.7509 150.046 21.2209 151.161 21.1009Z" fill="white"/>
</g>
<defs>
<linearGradient id="paint0_linear_1113_2" x1="2684.87" y1="5372.45" x2="2684.87" y2="-0.000244141" gradientUnits="userSpaceOnUse">
<stop stop-color="#FFA246"/>
<stop offset="1" stop-color="#E14A53"/>
</linearGradient>
<linearGradient id="paint1_linear_1113_2" x1="2684.87" y1="5373.35" x2="2684.87" y2="0.895508" gradientUnits="userSpaceOnUse">
<stop stop-color="#FFA246"/>
<stop offset="1" stop-color="#E14A53"/>
</linearGradient>
<clipPath id="clip0_1113_2">
<rect width="152" height="54" fill="white"/>
</clipPath>
</defs>
</svg>